<mxfile host="app.diagrams.net" agent="Mozilla/5.0 (Windows NT 10.0; Win64; x64) AppleWebKit/537.36 (KHTML, like Gecko) Chrome/126.0.0.0 Safari/537.36" version="24.7.5">
  <diagram id="C5RBs43oDa-KdzZeNtuy" name="Page-1">
    <mxGraphModel dx="890" dy="1035" grid="1" gridSize="10" guides="1" tooltips="1" connect="1" arrows="1" fold="1" page="1" pageScale="1" pageWidth="827" pageHeight="1169" math="0" shadow="0">
      <root>
        <mxCell id="WIyWlLk6GJQsqaUBKTNV-0" />
        <mxCell id="WIyWlLk6GJQsqaUBKTNV-1" parent="WIyWlLk6GJQsqaUBKTNV-0" />
        <mxCell id="WIyWlLk6GJQsqaUBKTNV-3" value="&lt;div&gt;&lt;b&gt;USER&lt;/b&gt;&lt;/div&gt;&lt;b&gt;&lt;div&gt;&lt;b&gt;&lt;br&gt;&lt;/b&gt;&lt;/div&gt;Frontend&lt;/b&gt;&lt;div&gt;&lt;u&gt;(Typescript + React)&lt;br&gt;&lt;/u&gt;&lt;/div&gt;" style="rounded=1;whiteSpace=wrap;html=1;fontSize=12;glass=0;strokeWidth=1;shadow=0;" parent="WIyWlLk6GJQsqaUBKTNV-1" vertex="1">
          <mxGeometry x="247" y="10" width="330" height="70" as="geometry" />
        </mxCell>
        <mxCell id="63J83ofPqzS_yoblR24A-0" value="" style="rounded=1;whiteSpace=wrap;html=1;" vertex="1" parent="WIyWlLk6GJQsqaUBKTNV-1">
          <mxGeometry x="247" y="90" width="160" height="150" as="geometry" />
        </mxCell>
        <mxCell id="63J83ofPqzS_yoblR24A-10" value="&lt;ul&gt;&lt;li&gt;Sign Up/Login&lt;br&gt;&lt;/li&gt;&lt;li&gt;Dashboard/Header&lt;br&gt;&lt;/li&gt;&lt;li&gt;Localization&lt;br&gt;&lt;/li&gt;&lt;li&gt;Settings&lt;/li&gt;&lt;li&gt;Reports&lt;/li&gt;&lt;ul&gt;&lt;li&gt;View&lt;/li&gt;&lt;li&gt;Download&lt;/li&gt;&lt;/ul&gt;&lt;/ul&gt;" style="text;strokeColor=none;fillColor=none;html=1;whiteSpace=wrap;verticalAlign=middle;overflow=hidden;" vertex="1" parent="WIyWlLk6GJQsqaUBKTNV-1">
          <mxGeometry x="227" y="80" width="240" height="170" as="geometry" />
        </mxCell>
        <mxCell id="63J83ofPqzS_yoblR24A-11" value="" style="rounded=1;whiteSpace=wrap;html=1;" vertex="1" parent="WIyWlLk6GJQsqaUBKTNV-1">
          <mxGeometry x="417" y="90" width="160" height="150" as="geometry" />
        </mxCell>
        <mxCell id="63J83ofPqzS_yoblR24A-12" value="&lt;div&gt;&lt;span style=&quot;white-space: pre;&quot;&gt;&#x9;&lt;/span&gt;&lt;span style=&quot;white-space: pre;&quot;&gt;&#x9;&lt;/span&gt;&amp;nbsp;&amp;nbsp;&lt;u&gt;Managements&lt;/u&gt;&lt;br&gt;&lt;/div&gt;&lt;ul&gt;&lt;li&gt;Transactions&lt;/li&gt;&lt;ul&gt;&lt;li&gt;Income/Expense&lt;/li&gt;&lt;li&gt;History&lt;/li&gt;&lt;/ul&gt;&lt;li&gt;Budget&lt;/li&gt;&lt;ul&gt;&lt;li&gt;Budget Cap&lt;/li&gt;&lt;li&gt;Overview&lt;/li&gt;&lt;/ul&gt;&lt;/ul&gt;" style="text;strokeColor=none;fillColor=none;html=1;whiteSpace=wrap;verticalAlign=middle;overflow=hidden;" vertex="1" parent="WIyWlLk6GJQsqaUBKTNV-1">
          <mxGeometry x="397" y="94" width="200" height="151" as="geometry" />
        </mxCell>
        <mxCell id="63J83ofPqzS_yoblR24A-13" style="edgeStyle=none;curved=1;rounded=0;orthogonalLoop=1;jettySize=auto;html=1;exitX=0.5;exitY=1;exitDx=0;exitDy=0;fontSize=12;startSize=8;endSize=8;" edge="1" parent="WIyWlLk6GJQsqaUBKTNV-1" source="63J83ofPqzS_yoblR24A-10" target="63J83ofPqzS_yoblR24A-10">
          <mxGeometry relative="1" as="geometry" />
        </mxCell>
        <mxCell id="63J83ofPqzS_yoblR24A-17" value="" style="endArrow=none;html=1;rounded=0;fontSize=12;startSize=8;endSize=8;curved=1;exitX=0.333;exitY=0.996;exitDx=0;exitDy=0;exitPerimeter=0;" edge="1" parent="WIyWlLk6GJQsqaUBKTNV-1" source="63J83ofPqzS_yoblR24A-10">
          <mxGeometry width="50" height="50" relative="1" as="geometry">
            <mxPoint x="367" y="320" as="sourcePoint" />
            <mxPoint x="407" y="280" as="targetPoint" />
            <Array as="points">
              <mxPoint x="307" y="290" />
            </Array>
          </mxGeometry>
        </mxCell>
        <mxCell id="63J83ofPqzS_yoblR24A-18" value="" style="endArrow=none;html=1;rounded=0;fontSize=12;startSize=8;endSize=8;curved=1;exitX=0.581;exitY=1.021;exitDx=0;exitDy=0;exitPerimeter=0;" edge="1" parent="WIyWlLk6GJQsqaUBKTNV-1" source="63J83ofPqzS_yoblR24A-12">
          <mxGeometry width="50" height="50" relative="1" as="geometry">
            <mxPoint x="517" y="250" as="sourcePoint" />
            <mxPoint x="417" y="280" as="targetPoint" />
            <Array as="points">
              <mxPoint x="517" y="290" />
            </Array>
          </mxGeometry>
        </mxCell>
        <mxCell id="63J83ofPqzS_yoblR24A-19" value="" style="endArrow=classic;html=1;rounded=0;fontSize=12;startSize=8;endSize=8;curved=1;" edge="1" parent="WIyWlLk6GJQsqaUBKTNV-1">
          <mxGeometry width="50" height="50" relative="1" as="geometry">
            <mxPoint x="411.5" y="280" as="sourcePoint" />
            <mxPoint x="411.5" y="320" as="targetPoint" />
          </mxGeometry>
        </mxCell>
        <mxCell id="63J83ofPqzS_yoblR24A-20" value="&lt;b&gt;API Endpoints&lt;/b&gt;&lt;div&gt;&lt;u&gt;(Flask/Django - Python)&lt;br&gt;&lt;/u&gt;&lt;/div&gt;" style="rounded=1;whiteSpace=wrap;html=1;fontSize=12;glass=0;strokeWidth=1;shadow=0;" vertex="1" parent="WIyWlLk6GJQsqaUBKTNV-1">
          <mxGeometry x="162" y="330" width="500" height="50" as="geometry" />
        </mxCell>
        <mxCell id="63J83ofPqzS_yoblR24A-21" value="&lt;div&gt;&lt;br&gt;&lt;/div&gt;" style="rounded=1;whiteSpace=wrap;html=1;" vertex="1" parent="WIyWlLk6GJQsqaUBKTNV-1">
          <mxGeometry x="162" y="390" width="120" height="100" as="geometry" />
        </mxCell>
        <mxCell id="63J83ofPqzS_yoblR24A-22" value="&lt;div&gt;Authentication&lt;/div&gt;&lt;ul&gt;&lt;li&gt;User Registration&lt;/li&gt;&lt;li&gt;User Login&lt;/li&gt;&lt;/ul&gt;" style="text;strokeColor=none;fillColor=none;html=1;whiteSpace=wrap;verticalAlign=middle;overflow=hidden;" vertex="1" parent="WIyWlLk6GJQsqaUBKTNV-1">
          <mxGeometry x="168" y="400" width="120" height="80" as="geometry" />
        </mxCell>
        <mxCell id="63J83ofPqzS_yoblR24A-23" value="&lt;div&gt;&lt;br&gt;&lt;/div&gt;" style="rounded=1;whiteSpace=wrap;html=1;" vertex="1" parent="WIyWlLk6GJQsqaUBKTNV-1">
          <mxGeometry x="288" y="390" width="120" height="100" as="geometry" />
        </mxCell>
        <mxCell id="63J83ofPqzS_yoblR24A-24" value="&lt;div&gt;Report Generation&lt;/div&gt;&lt;ul&gt;&lt;li&gt;Generate Report&lt;/li&gt;&lt;li&gt;Download Report&lt;/li&gt;&lt;/ul&gt;" style="text;strokeColor=none;fillColor=none;html=1;whiteSpace=wrap;verticalAlign=middle;overflow=hidden;" vertex="1" parent="WIyWlLk6GJQsqaUBKTNV-1">
          <mxGeometry x="294" y="400" width="128" height="90" as="geometry" />
        </mxCell>
        <mxCell id="63J83ofPqzS_yoblR24A-25" value="&lt;div&gt;&lt;br&gt;&lt;/div&gt;" style="rounded=1;whiteSpace=wrap;html=1;" vertex="1" parent="WIyWlLk6GJQsqaUBKTNV-1">
          <mxGeometry x="414" y="390" width="120" height="100" as="geometry" />
        </mxCell>
        <mxCell id="63J83ofPqzS_yoblR24A-26" value="&lt;div&gt;Graph Data&lt;/div&gt;&lt;ul&gt;&lt;li&gt;Trends&lt;/li&gt;&lt;li&gt;Categories&lt;/li&gt;&lt;/ul&gt;" style="text;strokeColor=none;fillColor=none;html=1;whiteSpace=wrap;verticalAlign=middle;overflow=hidden;" vertex="1" parent="WIyWlLk6GJQsqaUBKTNV-1">
          <mxGeometry x="420" y="395" width="120" height="80" as="geometry" />
        </mxCell>
        <mxCell id="63J83ofPqzS_yoblR24A-27" value="&lt;div&gt;&lt;br&gt;&lt;/div&gt;" style="rounded=1;whiteSpace=wrap;html=1;" vertex="1" parent="WIyWlLk6GJQsqaUBKTNV-1">
          <mxGeometry x="540" y="390" width="120" height="100" as="geometry" />
        </mxCell>
        <mxCell id="63J83ofPqzS_yoblR24A-28" value="&lt;div&gt;Localization&lt;/div&gt;&lt;ul&gt;&lt;li&gt;Language&lt;/li&gt;&lt;li&gt;Currency&lt;/li&gt;&lt;/ul&gt;" style="text;strokeColor=none;fillColor=none;html=1;whiteSpace=wrap;verticalAlign=middle;overflow=hidden;" vertex="1" parent="WIyWlLk6GJQsqaUBKTNV-1">
          <mxGeometry x="546" y="395" width="120" height="80" as="geometry" />
        </mxCell>
        <mxCell id="63J83ofPqzS_yoblR24A-33" value="&lt;u&gt;Management&lt;/u&gt;" style="rounded=1;whiteSpace=wrap;html=1;" vertex="1" parent="WIyWlLk6GJQsqaUBKTNV-1">
          <mxGeometry x="162" y="500" width="498" height="30" as="geometry" />
        </mxCell>
        <mxCell id="63J83ofPqzS_yoblR24A-34" value="" style="rounded=1;whiteSpace=wrap;html=1;" vertex="1" parent="WIyWlLk6GJQsqaUBKTNV-1">
          <mxGeometry x="162" y="540" width="238" height="120" as="geometry" />
        </mxCell>
        <mxCell id="63J83ofPqzS_yoblR24A-35" value="" style="rounded=1;whiteSpace=wrap;html=1;" vertex="1" parent="WIyWlLk6GJQsqaUBKTNV-1">
          <mxGeometry x="420" y="540" width="242" height="120" as="geometry" />
        </mxCell>
        <mxCell id="63J83ofPqzS_yoblR24A-36" value="&lt;div&gt;&lt;span style=&quot;white-space: pre;&quot;&gt;&#x9;&lt;/span&gt;Transactions&lt;/div&gt;&lt;ul&gt;&lt;li&gt;&lt;span style=&quot;background-color: initial;&quot;&gt;Add/Delete/Edit Transactions&lt;/span&gt;&lt;/li&gt;&lt;li&gt;Get Transactions&lt;/li&gt;&lt;/ul&gt;" style="text;strokeColor=none;fillColor=none;html=1;whiteSpace=wrap;verticalAlign=middle;overflow=hidden;" vertex="1" parent="WIyWlLk6GJQsqaUBKTNV-1">
          <mxGeometry x="150" y="540" width="228" height="110" as="geometry" />
        </mxCell>
        <mxCell id="63J83ofPqzS_yoblR24A-37" value="&lt;div&gt;Budget&lt;/div&gt;&lt;ul&gt;&lt;li&gt;Set Budget&lt;/li&gt;&lt;li&gt;Get Budget&lt;/li&gt;&lt;/ul&gt;" style="text;strokeColor=none;fillColor=none;html=1;whiteSpace=wrap;verticalAlign=middle;overflow=hidden;" vertex="1" parent="WIyWlLk6GJQsqaUBKTNV-1">
          <mxGeometry x="430" y="545" width="180" height="95" as="geometry" />
        </mxCell>
        <mxCell id="63J83ofPqzS_yoblR24A-38" style="edgeStyle=none;curved=1;rounded=0;orthogonalLoop=1;jettySize=auto;html=1;exitX=0.5;exitY=1;exitDx=0;exitDy=0;fontSize=12;startSize=8;endSize=8;" edge="1" parent="WIyWlLk6GJQsqaUBKTNV-1">
          <mxGeometry relative="1" as="geometry">
            <mxPoint x="346" y="672" as="sourcePoint" />
            <mxPoint x="346" y="672" as="targetPoint" />
          </mxGeometry>
        </mxCell>
        <mxCell id="63J83ofPqzS_yoblR24A-39" value="" style="endArrow=none;html=1;rounded=0;fontSize=12;startSize=8;endSize=8;curved=1;exitX=0.333;exitY=0.996;exitDx=0;exitDy=0;exitPerimeter=0;" edge="1" parent="WIyWlLk6GJQsqaUBKTNV-1">
          <mxGeometry width="50" height="50" relative="1" as="geometry">
            <mxPoint x="306" y="671" as="sourcePoint" />
            <mxPoint x="406" y="702" as="targetPoint" />
            <Array as="points">
              <mxPoint x="306" y="712" />
            </Array>
          </mxGeometry>
        </mxCell>
        <mxCell id="63J83ofPqzS_yoblR24A-40" value="" style="endArrow=none;html=1;rounded=0;fontSize=12;startSize=8;endSize=8;curved=1;exitX=0.581;exitY=1.021;exitDx=0;exitDy=0;exitPerimeter=0;" edge="1" parent="WIyWlLk6GJQsqaUBKTNV-1">
          <mxGeometry width="50" height="50" relative="1" as="geometry">
            <mxPoint x="512" y="670" as="sourcePoint" />
            <mxPoint x="416" y="702" as="targetPoint" />
            <Array as="points">
              <mxPoint x="516" y="712" />
            </Array>
          </mxGeometry>
        </mxCell>
        <mxCell id="63J83ofPqzS_yoblR24A-41" value="" style="endArrow=classic;html=1;rounded=0;fontSize=12;startSize=8;endSize=8;curved=1;" edge="1" parent="WIyWlLk6GJQsqaUBKTNV-1">
          <mxGeometry width="50" height="50" relative="1" as="geometry">
            <mxPoint x="411.5" y="702" as="sourcePoint" />
            <mxPoint x="411.5" y="742" as="targetPoint" />
          </mxGeometry>
        </mxCell>
        <mxCell id="63J83ofPqzS_yoblR24A-42" value="&lt;b&gt;Database&lt;/b&gt;&lt;div&gt;&lt;b&gt;&lt;u&gt;(SQLite)&lt;/u&gt;&lt;/b&gt;&lt;/div&gt;" style="rounded=1;whiteSpace=wrap;html=1;" vertex="1" parent="WIyWlLk6GJQsqaUBKTNV-1">
          <mxGeometry x="330" y="750" width="170" height="40" as="geometry" />
        </mxCell>
        <mxCell id="63J83ofPqzS_yoblR24A-43" value="" style="rounded=1;whiteSpace=wrap;html=1;" vertex="1" parent="WIyWlLk6GJQsqaUBKTNV-1">
          <mxGeometry x="330" y="800" width="168" height="110" as="geometry" />
        </mxCell>
        <mxCell id="63J83ofPqzS_yoblR24A-44" value="&lt;div&gt;Tables&lt;/div&gt;&lt;ul&gt;&lt;li&gt;Users&lt;/li&gt;&lt;li&gt;Transactions&lt;/li&gt;&lt;li&gt;Budget&lt;/li&gt;&lt;li&gt;Localization&lt;/li&gt;&lt;/ul&gt;" style="text;strokeColor=none;fillColor=none;html=1;whiteSpace=wrap;verticalAlign=middle;overflow=hidden;" vertex="1" parent="WIyWlLk6GJQsqaUBKTNV-1">
          <mxGeometry x="348" y="810" width="148" height="90" as="geometry" />
        </mxCell>
        <mxCell id="63J83ofPqzS_yoblR24A-45" value="" style="endArrow=classic;html=1;rounded=0;fontSize=12;startSize=8;endSize=8;curved=1;exitX=0.5;exitY=1;exitDx=0;exitDy=0;" edge="1" parent="WIyWlLk6GJQsqaUBKTNV-1" source="63J83ofPqzS_yoblR24A-43">
          <mxGeometry width="50" height="50" relative="1" as="geometry">
            <mxPoint x="420" y="950" as="sourcePoint" />
            <mxPoint x="414" y="950" as="targetPoint" />
          </mxGeometry>
        </mxCell>
      </root>
    </mxGraphModel>
  </diagram>
</mxfile>
